:FULLY-SPECIFIED
:FORCE-ALL-JOINTS-BE-3DOF
:DEGREES
1020
root 0.247504 13.5561 -35.3857 372.299 -28.1861 342.296
lfemur -70.0068 35.9193 -3.95096
ltibia 82.0877 0 0
lfoot -12.7328 -8.43937 0
ltoes -6.08546 0 0
rfemur 10.058 -8.70875 8.66804
rtibia 36.6837 0 0
rfoot -22.6026 -26.1789 0
rtoes -31.5028 0 0
lowerback 10.3174 -0.648967 5.64248
upperback -1.64721 0.363468 8.00205
thorax -7.61545 0.0890398 5.32546
lowerneck -6.26972 8.09871 3.76809
upperneck 8.25879 10.5737 -0.932698
head 4.10263 5.30098 -0.361289
lclavicle 7.95636e-14 -3.69739e-14 0
lhumerus 84.141 -9.70934 27.5188
lradius 95.5441 0 0
lwrist 11.4053 0 0
lhand -35.9976 29.9334 0
lfingers 7.12502 0 0
lthumb -9.10746 59.7167 0
rclavicle 7.95636e-14 -3.69739e-14 0
rhumerus -76.8276 21.9228 -94.5904
rradius 111.986 0 0
rwrist -62.9347 0 0
rhand -10.1272 -25.1639 0
rfingers 7.12502 0 0
rthumb 15.8612 -54.5342 0
1021
root 0.246428 13.5528 -35.3769 372.275 -28.1762 342.313
lfemur -70.0613 35.9554 -3.98309
ltibia 82.1888 0 0
lfoot -12.8266 -8.45874 0
ltoes -6.09135 0 0
rfemur 10.1033 -8.7081 8.64838
rtibia 36.6543 0 0
rfoot -22.6032 -26.1944 0
rtoes -31.4966 0 0
lowerback 10.2874 -0.789171 5.47745
upperback -1.81465 0.173717 8.11367
thorax -7.7717 0.00554305 5.58204
lowerneck -5.30263 8.21476 3.61802
upperneck 8.01124 10.783 -0.998588
head 3.82443 5.4032 -0.397208
lclavicle 7.57867e-14 -1.19271e-15 0
lhumerus 83.5618 -9.24113 27.7396
lradius 95.2128 0 0
lwrist 11.4167 0 0
lhand -36.232 30.3028 0
lfingers 7.12502 0 0
lthumb -9.33364 60.0762 0
rclavicle 7.57867e-14 -1.19271e-15 0
rhumerus -77.3534 22.4523 -94.8543
rradius 111.987 0 0
rwrist -62.978 0 0
rhand -10.1238 -25.1576 0
rfingers 7.12502 0 0
rthumb 15.8645 -54.5277 0
1022
root 0.245708 13.5496 -35.3692 372.285 -28.1519 342.329
lfemur -70.1141 35.9903 -4.0142
ltibia 82.2948 0 0
lfoot -12.9156 -8.47712 0
ltoes -6.09705 0 0
rfemur 10.1488 -8.70745 8.62862
rtibia 36.6243 0 0
rfoot -22.6038 -26.2103 0
rtoes -31.4865 0 0
lowerback 10.2589 -0.83997 5.40937
upperback -1.87143 0.101125 8.14679
thorax -7.81317 -0.0261421 5.67166
lowerneck -5.02538 8.26271 3.52909
upperneck 7.94613 10.8638 -0.995879
head 3.74332 5.44243 -0.392086
lclavicle -1.31198e-14 -3.06128e-14 0
lhumerus 83.3715 -8.69039 27.9271
lradius 95.0235 0 0
lwrist 11.1777 0 0
lhand -36.3411 30.9188 0
lfingers 7.12502 0 0
lthumb -9.43896 60.6874 0
rclavicle -1.31198e-14 -3.06128e-14 0
rhumerus -77.5207 22.7097 -94.9668
rradius 111.981 0 0
rwrist -63.04 0 0
rhand -10.0941 -25.1284 0
rfingers 7.12502 0 0
rthumb 15.8931 -54.4963 0
1023
root 0.244334 13.5456 -35.3606 372.3 -28.1567 342.324
lfemur -70.1647 36.0237 -4.04396
ltibia 82.4039 0 0
lfoot -12.9986 -8.49426 0
ltoes -6.10247 0 0
rfemur 10.1941 -8.7068 8.60896
rtibia 36.5939 0 0
rfoot -22.6045 -26.2264 0
rtoes -31.4731 0 0
lowerback 10.2051 -0.811759 5.42256
upperback -1.86025 0.132276 8.12126
thorax -7.77132 -0.0119926 5.62792
lowerneck -5.04604 8.24865 3.51057
upperneck 7.94516 10.844 -0.975884
head 3.7438 5.43277 -0.382848
lclavicle -6.27911e-14 -7.55382e-15 0
lhumerus 83.4359 -8.11795 28.0702
lradius 94.7691 0 0
lwrist 10.7496 0 0
lhand -36.6287 30.7457 0
lfingers 7.12502 0 0
lthumb -9.71644 60.5016 0
rclavicle -6.27911e-14 -7.55382e-15 0
rhumerus -77.447 22.7083 -94.9736
rradius 111.902 0 0
rwrist -63.0942 0 0
rhand -10.1689 -25.1181 0
rfingers 7.12502 0 0
rthumb 15.821 -54.4916 0
1024
root 0.24394 13.5419 -35.3533 372.29 -28.1712 342.361
lfemur -70.2123 36.0552 -4.07203
ltibia 82.5139 0 0
lfoot -13.0744 -8.50993 0
ltoes -6.10755 0 0
rfemur 10.2387 -8.70616 8.58957
rtibia 36.5636 0 0
rfoot -22.6051 -26.2424 0
rtoes -31.4567 0 0
lowerback 10.1852 -0.849302 5.34252
upperback -1.88584 0.0728161 8.13821
thorax -7.7842 -0.0370324 5.70279
lowerneck -4.88081 8.30708 3.43768
upperneck 7.91975 10.9345 -0.983165
head 3.70061 5.47614 -0.376808
lclavicle -4.87022e-15 -3.53837e-14 0
lhumerus 83.2383 -7.58309 28.2573
lradius 94.5241 0 0
lwrist 9.91938 0 0
lhand -36.5911 29.4269 0
lfingers 7.12502 0 0
lthumb -9.68018 59.1845 0
rclavicle -4.87022e-15 -3.53837e-14 0
rhumerus -77.5524 22.9381 -95.0724
rradius 111.878 0 0
rwrist -63.1595 0 0
rhand -10.2532 -25.1076 0
rfingers 7.12502 0 0
rthumb 15.7398 -54.4875 0
1025
root 0.24242 13.5374 -35.3458 372.303 -28.1907 342.344
lfemur -70.2565 36.0844 -4.09806
ltibia 82.623 0 0
lfoot -13.1419 -8.52386 0
ltoes -6.1122 0 0
rfemur 10.2823 -8.70554 8.57066
rtibia 36.5336 0 0
rfoot -22.6057 -26.2583 0
rtoes -31.4375 0 0
lowerback 10.1627 -0.81763 5.34497
upperback -1.87423 0.111007 8.11861
thorax -7.76054 -0.018818 5.67172
lowerneck -4.91514 8.29554 3.44113
upperneck 7.9404 10.9179 -0.983958
head 3.71442 5.46774 -0.376345
lclavicle -6.61953e-14 -9.14409e-15 0
lhumerus 83.3351 -7.06191 28.3981
lradius 94.2111 0 0
lwrist 9.20898 0 0
lhand -36.6413 29.6128 0
lfingers 7.12502 0 0
lthumb -9.72853 59.3681 0
rclavicle -6.61953e-14 -9.14409e-15 0
rhumerus -77.5395 22.934 -95.0842
rradius 111.867 0 0
rwrist -63.223 0 0
rhand -10.2349 -25.1344 0
rfingers 7.12502 0 0
rthumb 15.7575 -54.513 0
1026
root 0.241835 13.5333 -35.339 372.306 -28.1668 342.36
lfemur -70.2967 36.1109 -4.12172
ltibia 82.729 0 0
lfoot -13.1998 -8.53581 0
ltoes -6.11635 0 0
rfemur 10.3244 -8.70493 8.55241
rtibia 36.5042 0 0
rfoot -22.6063 -26.2738 0
rtoes -31.4161 0 0
lowerback 10.1503 -0.830868 5.30728
upperback -1.88432 0.0884574 8.12446
thorax -7.76301 -0.0279407 5.70346
lowerneck -4.86763 8.32399 3.40872
upperneck 7.93106 10.9617 -0.999513
head 3.70187 5.48813 -0.376144
lclavicle -5.7573e-14 1.55052e-14 0
lhumerus 83.2364 -6.57342 28.5815
lradius 94.0584 0 0
lwrist 8.66203 0 0
lhand -35.89 30.44 0
lfingers 7.12502 0 0
lthumb -9.00363 60.2279 0
rclavicle -5.7573e-14 1.55052e-14 0
rhumerus -77.6058 23.0529 -95.1289
rradius 111.89 0 0
rwrist -63.2778 0 0
rhand -10.2306 -25.0477 0
rfingers 7.12502 0 0
rthumb 15.7616 -54.4259 0
1027
root 0.240287 13.5293 -35.3317 372.332 -28.1899 342.343
lfemur -70.3323 36.1344 -4.14267
ltibia 82.8301 0 0
lfoot -13.2468 -8.54554 0
ltoes -6.11992 0 0
rfemur 10.3645 -8.70436 8.535
rtibia 36.4757 0 0
rfoot -22.6069 -26.2887 0
rtoes -31.3927 0 0
lowerback 10.1211 -0.84843 5.24611
upperback -1.91042 0.0587301 8.1681
thorax -7.77306 -0.038782 5.79179
lowerneck -4.69934 8.36729 3.37278
upperneck 7.88953 11.0337 -1.06655
head 3.65881 5.52118 -0.39697
lclavicle -6.12257e-14 -4.8901e-14 0
lhumerus 83.1324 -6.07593 28.7269
lradius 93.8092 0 0
lwrist 8.51272 0 0
lhand -35.4416 30.9528 0
lfingers 7.12502 0 0
lthumb -8.57098 60.7588 0
rclavicle -6.12257e-14 -4.8901e-14 0
rhumerus -77.7197 23.2549 -95.1879
rradius 111.89 0 0
rwrist -63.2839 0 0
rhand -10.0673 -24.9691 0
rfingers 7.12502 0 0
rthumb 15.9188 -54.3348 0
1028
root 0.239316 13.5241 -35.3266 372.327 -28.1637 342.349
lfemur -70.3627 36.1545 -4.16058
ltibia 82.9241 0 0
lfoot -13.282 -8.55279 0
ltoes -6.12283 0 0
rfemur 10.4022 -8.70382 8.51863
rtibia 36.4485 0 0
rfoot -22.6074 -26.3029 0
rtoes -31.3677 0 0
lowerback 10.1131 -0.838304 5.23928
upperback -1.88804 0.0676372 8.15285
thorax -7.74447 -0.0344062 5.77573
lowerneck -4.74913 8.36507 3.38924
upperneck 7.88024 11.0304 -1.09598
head 3.66827 5.5185 -0.407079
lclavicle 8.33156e-14 -1.19271e-14 0
lhumerus 83.1563 -5.59473 28.8228
lradius 93.6821 0 0
lwrist 8.70814 0 0
lhand -36.1744 29.4337 0
lfingers 7.12502 0 0
lthumb -9.27805 59.2096 0
rclavicle 8.33156e-14 -1.19271e-14 0
rhumerus -77.6382 23.2791 -95.1921
rradius 111.847 0 0
rwrist -63.297 0 0
rhand -10.1589 -24.9499 0
rfingers 7.12502 0 0
rthumb 15.8306 -54.3227 0
